<svg xmlns="http://www.w3.org/2000/svg" xmlns:xlink="http://www.w3.org/1999/xlink" xmlns:lucid="lucid" width="922" height="422.86"><g transform="translate(-489.00000000980367 -120)" lucid:page-tab-id="0_0"><path d="M0 0h1920v720H0z" fill="#fff"/><path d="M840 237.14h220V300H840z" fill="#d2e5b3"/><use xlink:href="#a" transform="matrix(1,0,0,1,845.0000000049018,242.14285714285717) translate(35.25555555555559 32.05555555555556)"/><use xlink:href="#b" transform="matrix(1,0,0,1,845.0000000049018,242.14285714285717) translate(95.03333333333333 32.05555555555556)"/><path d="M840 140h220v62.86H840z" fill="#d2e5b3"/><use xlink:href="#c" transform="matrix(1,0,0,1,845.0000000049018,145) translate(52.21111111111114 32.05555555555556)"/><use xlink:href="#d" transform="matrix(1,0,0,1,845.0000000049018,145) translate(91.30000000000001 32.05555555555556)"/><path d="M950 203.86v14.78" stroke="#000" stroke-width="2" fill="none"/><path d="M951 203.88h-2v-1.02h2"/><path d="M950 233.9l-4.64-14.26h9.28z" stroke="#000" stroke-width="2"/><path d="M650 460h190v62.86H650z" fill="#d2e5b3"/><use xlink:href="#c" transform="matrix(1,0,0,1,655.0000000000002,465) translate(41.11111111111113 32.05555555555556)"/><use xlink:href="#e" transform="matrix(1,0,0,1,655.0000000000002,465) translate(80.2 32.05555555555556)"/><path d="M540 237.14h220V300H540z" fill="#d2e5b3"/><use xlink:href="#f" transform="matrix(1,0,0,1,545.0000000098037,242.14285714285717) translate(26.111111111111143 32.05555555555556)"/><use xlink:href="#b" transform="matrix(1,0,0,1,545.0000000098037,242.14285714285717) translate(104.17777777777778 32.05555555555556)"/><path d="M1140 237.14h220V300h-220z" fill="#d2e5b3"/><use xlink:href="#g" transform="matrix(1,0,0,1,1145,242.14285714285717) translate(39.24444444444447 32.05555555555556)"/><use xlink:href="#h" transform="matrix(1,0,0,1,1145,242.14285714285717) translate(115.26666666666665 32.05555555555556)"/><path d="M839 171.43H657c-3.87 0-7 3.13-7 7v40.2" stroke="#000" stroke-width="2" fill="none"/><path d="M840 172.43h-1.03v-2H840"/><path d="M650 233.9l-4.64-14.26h9.28z" stroke="#000" stroke-width="2"/><path d="M1061 171.43h182c3.87 0 7 3.13 7 7v40.2" stroke="#000" stroke-width="2" fill="none"/><path d="M1061.03 172.43H1060v-2h1.03"/><path d="M1250 233.9l-4.64-14.26h9.28z" stroke="#000" stroke-width="2"/><path d="M1060 460h190v62.86h-190z" fill="#d2e5b3"/><use xlink:href="#i" transform="matrix(1,0,0,1,1065.0000000147054,465) translate(30.877777777777794 20.944444444444446)"/><use xlink:href="#e" transform="matrix(1,0,0,1,1065.0000000147054,465) translate(60.655555555555566 43.16666666666666)"/><path d="M1361 268.57h32c3.87 0 7 3.14 7 7v208.86c0 3.86-3.13 7-7 7h-124.5" stroke="#000" stroke-width="2" fill="none"/><path d="M1361.03 269.57H1360v-2h1.03"/><path d="M1253.24 491.43l14.26-4.64v9.26z" stroke="#000" stroke-width="2"/><path d="M539 268.57h-32c-3.87 0-7 3.14-7 7v208.86c0 3.86 3.13 7 7 7h124.5" stroke="#000" stroke-width="2" fill="none"/><path d="M540 269.57h-1.03v-2H540"/><path d="M646.76 491.43l-14.26 4.63v-9.27z" stroke="#000" stroke-width="2"/><path d="M650 301v112c0 3.87 3.13 7 7 7h334c3.87 0 7 3.13 7 7v57.43c0 3.86 3.13 7 7 7h36.5" stroke="#000" stroke-width="2" fill="none"/><path d="M651 301.03h-2V300h2"/><path d="M1056.76 491.43l-14.26 4.63v-9.27z" stroke="#000" stroke-width="2"/><path d="M839 268.57h-14c-3.87 0-7 3.14-7 7V373c0 3.87-3.13 7-7 7h-59c-3.87 0-7 3.13-7 7v54.5" stroke="#000" stroke-width="2" fill="none"/><path d="M840 269.57h-1.03v-2H840"/><path d="M745 456.76l-4.64-14.26h9.28z" stroke="#000" stroke-width="2"/><path d="M950 301v72c0 3.87 3.13 7 7 7h188.86c3.86 0 7 3.13 7 7v54.5" stroke="#000" stroke-width="2" fill="none"/><path d="M951 301.03h-2V300h2"/><path d="M1152.86 456.76l-4.64-14.26h9.27z" stroke="#000" stroke-width="2"/><path d="M1139 268.57h-32c-3.87 0-7-3.13-7-7v-66c0-3.86-3.13-7-7-7h-14.5" stroke="#000" stroke-width="2" fill="none"/><path d="M1140 269.57h-1.03v-2h1.03"/><path d="M1063.24 188.57l14.26-4.63v9.27z" stroke="#000" stroke-width="2"/><defs><path fill="#3d4752" d="M475-687l-7 70s-138-16-196-16c-98 0-151 32-151 110 0 91 48 106 170 133 138 31 199 65 199 189C490-51 405 9 266 9 190 9 53-12 53-12l8-70s133 17 204 17c98 0 147-37 147-133 0-78-41-99-154-122-143-30-214-65-214-201 0-130 87-186 228-186 77 0 203 20 203 20" id="j"/><path fill="#3d4752" d="M331-432H173v233c0 109 6 139 72 139 28 0 89-5 89-5l4 65s-66 11-101 11C134 11 98-28 98-172v-260H27v-68h71v-153h75v153h158v68" id="k"/><path fill="#3d4752" d="M433-347v246c2 32 26 42 58 46l-3 65c-60 0-92-11-118-38 0 0-90 38-185 38C98 10 49-45 49-143c0-96 49-139 152-148l158-15c7-80-16-132-87-132-73 0-191 13-191 13l-3-65s120-20 197-20c106 0 158 50 158 163zm-74 102l-148 12c-61 6-86 37-86 88 0 58 26 90 71 90 76 0 163-30 163-30v-160" id="l"/><path fill="#3d4752" d="M81 0v-500h74V0H81zm0-613v-87h74v87H81" id="m"/><path fill="#3d4752" d="M257-510c46 0 136 15 136 15l-2 65s-80-9-118-9c-115 0-146 48-146 180 0 146 23 199 146 199 38 0 119-9 119-9l3 65s-94 14-139 14C96 10 50-63 50-259c0-181 58-251 207-251" id="n"/><g id="a"><use transform="matrix(0.022222222222222213,0,0,0.022222222222222213,0,0)" xlink:href="#j"/><use transform="matrix(0.022222222222222213,0,0,0.022222222222222213,11.866666666666662,0)" xlink:href="#k"/><use transform="matrix(0.022222222222222213,0,0,0.022222222222222213,19.933333333333323,0)" xlink:href="#l"/><use transform="matrix(0.022222222222222213,0,0,0.022222222222222213,31.533333333333314,0)" xlink:href="#k"/><use transform="matrix(0.022222222222222213,0,0,0.022222222222222213,39.59999999999998,0)" xlink:href="#m"/><use transform="matrix(0.022222222222222213,0,0,0.022222222222222213,44.84444444444442,0)" xlink:href="#n"/></g><path fill="#3d4752" d="M29 0l190-696h169L575-1h-76l-53-174H156L106 0H29zm248-625L174-249h256L327-625h-50" id="o"/><path fill="#3d4752" d="M162 0H87v-500h75v33s84-43 155-43c137 0 168 68 168 250V0h-74v-259c0-133-15-182-106-182-66 0-143 37-143 37V0" id="p"/><path fill="#3d4752" d="M84 0v-718h74V0H84" id="q"/><path fill="#3d4752" d="M24-500h75L224-72h34l125-428h75L250 222h-75L239 0h-73" id="r"/><path fill="#3d4752" d="M416-491l-2 65s-111-16-175-16c-62 0-108 16-108 75 0 47 23 61 122 76 132 21 180 48 180 145 0 117-74 156-195 156C174 10 62-9 62-9l4-65s114 17 165 17c82 0 126-18 126-86 0-52-26-64-126-80-122-19-176-43-176-141 0-110 89-146 180-146 75 0 181 19 181 19" id="s"/><g id="b"><use transform="matrix(0.022222222222222213,0,0,0.022222222222222213,0,0)" xlink:href="#o"/><use transform="matrix(0.022222222222222213,0,0,0.022222222222222213,13.422222222222217,0)" xlink:href="#p"/><use transform="matrix(0.022222222222222213,0,0,0.022222222222222213,26.044444444444434,0)" xlink:href="#l"/><use transform="matrix(0.022222222222222213,0,0,0.022222222222222213,37.64444444444443,0)" xlink:href="#q"/><use transform="matrix(0.022222222222222213,0,0,0.022222222222222213,43.022222222222204,0)" xlink:href="#r"/><use transform="matrix(0.022222222222222213,0,0,0.022222222222222213,53.73333333333331,0)" xlink:href="#s"/><use transform="matrix(0.022222222222222213,0,0,0.022222222222222213,64.59999999999998,0)" xlink:href="#m"/><use transform="matrix(0.022222222222222213,0,0,0.022222222222222213,69.84444444444442,0)" xlink:href="#s"/></g><path fill="#3d4752" d="M90 0v-696h421v73H166v269h285v73H166V0H90" id="t"/><g id="c"><use transform="matrix(0.022222222222222213,0,0,0.022222222222222213,0,0)" xlink:href="#n"/><use transform="matrix(0.022222222222222213,0,0,0.022222222222222213,9.711111111111107,0)" xlink:href="#t"/><use transform="matrix(0.022222222222222213,0,0,0.022222222222222213,21.999999999999993,0)" xlink:href="#j"/></g><path fill="#3d4752" d="M90-696h250c130 0 206 51 206 172 0 95-33 140-88 166 62 21 109 62 109 162C567-49 483 0 353 0H90v-696zm255 378H166v247c149-8 322 42 322-129 0-107-90-118-143-118zm-8-307H166v237h178c87 0 123-43 123-126 0-79-42-111-130-111" id="u"/><path fill="#3d4752" d="M397-500h74V0h-74v-32s-78 42-148 42C109 10 80-54 80-239v-261h74v260c0 138 12 183 106 183 66 0 137-37 137-37v-406" id="v"/><path fill="#3d4752" d="M456-700V0h-75v-33s-77 43-152 43C132 10 50-32 50-248c0-175 56-262 209-262 43 0 107 10 122 13v-203h75zM239-59c67 0 142-37 142-37v-335c-15-2-78-11-118-11-105 0-138 65-138 196 0 160 55 187 114 187" id="w"/><path fill="#3d4752" d="M258-58c75 0 183-9 183-9l2 61S330 10 249 10C99 10 50-77 50-247c0-190 83-263 210-263 151 0 219 111 197 292H126c1 105 33 160 132 160zM126-279h260c0-120-39-164-126-164-86 0-134 47-134 164" id="x"/><g id="d"><use transform="matrix(0.022222222222222213,0,0,0.022222222222222213,0,0)" xlink:href="#u"/><use transform="matrix(0.022222222222222213,0,0,0.022222222222222213,13.733333333333327,0)" xlink:href="#v"/><use transform="matrix(0.022222222222222213,0,0,0.022222222222222213,26.155555555555544,0)" xlink:href="#p"/><use transform="matrix(0.022222222222222213,0,0,0.022222222222222213,38.77777777777776,0)" xlink:href="#w"/><use transform="matrix(0.022222222222222213,0,0,0.022222222222222213,50.84444444444442,0)" xlink:href="#q"/><use transform="matrix(0.022222222222222213,0,0,0.022222222222222213,56.2222222222222,0)" xlink:href="#x"/></g><path fill="#3d4752" d="M488 0L363-263H167V0H90v-696h256c149 0 221 62 221 212 0 107-38 174-127 201L573 0h-85zm0-484c0-96-45-139-142-139H167v287h180c106 0 141-59 141-148" id="y"/><g id="e"><use transform="matrix(0.022222222222222213,0,0,0.022222222222222213,0,0)" xlink:href="#y"/><use transform="matrix(0.022222222222222213,0,0,0.022222222222222213,13.86666666666666,0)" xlink:href="#x"/><use transform="matrix(0.022222222222222213,0,0,0.022222222222222213,25.133333333333322,0)" xlink:href="#v"/><use transform="matrix(0.022222222222222213,0,0,0.022222222222222213,37.55555555555554,0)" xlink:href="#s"/><use transform="matrix(0.022222222222222213,0,0,0.022222222222222213,48.4222222222222,0)" xlink:href="#x"/></g><path fill="#3d4752" d="M491-83l3 70S383 10 304 10C97 10 51-117 51-346c0-235 49-360 253-360 91 0 191 23 191 23l-4 69s-109-17-179-17c-155 0-182 93-182 285 0 188 26 281 184 281 62 0 177-18 177-18" id="z"/><path fill="#3d4752" d="M265-510c151 0 213 84 213 255 0 173-44 265-213 265S50-74 50-257c0-172 57-253 215-253zm0 453c118 0 136-66 136-198 0-133-40-187-136-187-106 0-138 48-138 185 0 140 20 200 138 200" id="A"/><path fill="#3d4752" d="M497 145L409 1c-24 6-52 9-83 9C110 10 52-112 52-344c0-230 60-362 274-362s273 131 273 362c0 163-27 268-114 319l84 136zM326-63c160 0 194-90 194-281 0-184-37-289-194-289-159 0-194 104-194 289S165-63 326-63" id="B"/><path fill="#3d4752" d="M471 0H90v-696h77v622h304V0" id="C"/><g id="f"><use transform="matrix(0.022222222222222213,0,0,0.022222222222222213,0,0)" xlink:href="#z"/><use transform="matrix(0.022222222222222213,0,0,0.022222222222222213,11.911111111111106,0)" xlink:href="#A"/><use transform="matrix(0.022222222222222213,0,0,0.022222222222222213,23.644444444444435,0)" xlink:href="#w"/><use transform="matrix(0.022222222222222213,0,0,0.022222222222222213,35.711111111111094,0)" xlink:href="#x"/><use transform="matrix(0.022222222222222213,0,0,0.022222222222222213,46.97777777777776,0)" xlink:href="#B"/><use transform="matrix(0.022222222222222213,0,0,0.022222222222222213,61.44444444444442,0)" xlink:href="#C"/></g><path fill="#3d4752" d="M87 0v-500h75v66s77-58 174-76v78c-94 18-174 69-174 69V0H87" id="D"/><path fill="#3d4752" d="M162 0H87v-500h75v34c-4-5 120-52 180-41 41 7 72 18 92 42 29-11 112-45 181-45 136 0 169 65 169 250V0h-75v-237c0-153-10-204-105-204-68 0-138 36-140 37 21 98 9 281 12 404h-75v-258c0-138-14-183-105-183-67 0-134 37-134 37V0" id="E"/><g id="g"><use transform="matrix(0.022222222222222213,0,0,0.022222222222222213,0,0)" xlink:href="#t"/><use transform="matrix(0.022222222222222213,0,0,0.022222222222222213,12.288888888888884,0)" xlink:href="#A"/><use transform="matrix(0.022222222222222213,0,0,0.022222222222222213,24.02222222222221,0)" xlink:href="#D"/><use transform="matrix(0.022222222222222213,0,0,0.022222222222222213,31.93333333333332,0)" xlink:href="#E"/><use transform="matrix(0.022222222222222213,0,0,0.022222222222222213,51.13333333333331,0)" xlink:href="#l"/><use transform="matrix(0.022222222222222213,0,0,0.022222222222222213,62.733333333333306,0)" xlink:href="#k"/></g><path fill="#3d4752" d="M162 0H87v-730h75v254s84-34 154-34c138 0 169 68 169 249V0h-75v-260c0-132-15-181-105-181-67 0-143 29-143 29V0" id="F"/><path fill="#3d4752" d="M162 0H87v-718h75v419l77-4 149-197h84L305-270 475 0h-85L240-229l-78 4V0" id="G"/><g id="h"><use transform="matrix(0.022222222222222213,0,0,0.022222222222222213,0,0)" xlink:href="#z"/><use transform="matrix(0.022222222222222213,0,0,0.022222222222222213,11.911111111111106,0)" xlink:href="#F"/><use transform="matrix(0.022222222222222213,0,0,0.022222222222222213,24.466666666666658,0)" xlink:href="#x"/><use transform="matrix(0.022222222222222213,0,0,0.022222222222222213,35.73333333333332,0)" xlink:href="#n"/><use transform="matrix(0.022222222222222213,0,0,0.022222222222222213,45.44444444444443,0)" xlink:href="#G"/></g><path fill="#3d4752" d="M308-510c136 0 183 72 183 251 0 198-54 269-236 269C195 10 87-1 87-1v-717h75v241s75-33 146-33zM254-57c137 0 161-62 161-200 0-130-26-184-114-184-66 0-139 27-139 27v351s65 6 92 6" id="H"/><g id="i"><use transform="matrix(0.022222222222222213,0,0,0.022222222222222213,0,0)" xlink:href="#j"/><use transform="matrix(0.022222222222222213,0,0,0.022222222222222213,11.866666666666662,0)" xlink:href="#v"/><use transform="matrix(0.022222222222222213,0,0,0.022222222222222213,24.288888888888877,0)" xlink:href="#H"/><use transform="matrix(0.022222222222222213,0,0,0.022222222222222213,36.311111111111096,0)" xlink:href="#E"/><use transform="matrix(0.022222222222222213,0,0,0.022222222222222213,55.511111111111084,0)" xlink:href="#A"/><use transform="matrix(0.022222222222222213,0,0,0.022222222222222213,67.24444444444443,0)" xlink:href="#w"/><use transform="matrix(0.022222222222222213,0,0,0.022222222222222213,79.31111111111109,0)" xlink:href="#v"/><use transform="matrix(0.022222222222222213,0,0,0.022222222222222213,91.73333333333332,0)" xlink:href="#q"/><use transform="matrix(0.022222222222222213,0,0,0.022222222222222213,97.11111111111109,0)" xlink:href="#x"/><use transform="matrix(0.022222222222222213,0,0,0.022222222222222213,108.37777777777775,0)" xlink:href="#s"/></g></defs></g></svg>